<svg width="230" height="70" viewBox="0 0 820.000000 278.000000" xmlns="http://www.w3.org/2000/svg">
    <g transform="translate(0.000000,278.000000) scale(0.100000,-0.100000)" fill="#fefefe" stroke="none" opacity="0">
      <path d="M0 1390 l0 -1390 4100 0 4100 0 0 1390 0 1390 -4100 0 -4100 0 0
  -1390z m1261 952 l12 -57 -6 -95 c-3 -52 -12 -115 -19 -140 l-14 -45 -15 65
  -14 65 0 100 0 100 13 38 c8 20 17 35 22 32 5 -3 14 -31 21 -63z m-396 -204
  c36 -69 78 -178 71 -185 -2 -2 -24 20 -50 49 -53 61 -121 184 -135 247 l-9 44
  43 -43 c25 -24 61 -74 80 -112z m870 61 c-20 -60 -99 -180 -150 -229 l-37 -35
  7 25 c17 57 45 123 71 167 33 58 117 149 122 134 2 -6 -4 -34 -13 -62z m-1239
  -319 c71 -35 221 -146 211 -156 -7 -7 -116 34 -175 66 -60 32 -152 105 -152
  121 0 18 40 8 116 -31z m1614 11 c0 -14 -79 -79 -135 -111 -52 -29 -195 -84
  -202 -76 -6 5 73 71 137 114 30 20 84 47 120 59 74 26 80 27 80 14z m-707 -98
  l67 -32 54 -51 53 -51 34 -62 34 -62 0 -105 0 -105 -37 -78 -37 -78 -55 -55
  -55 -55 -53 -24 -53 -25 -62 0 -62 0 -57 21 -56 21 -38 38 -38 38 -17 52 -17
  53 4 71 5 71 28 63 28 63 34 29 34 30 27 0 c66 -1 169 -77 198 -147 l14 -33
  -15 -31 -16 -30 -17 3 c-9 2 -29 22 -45 46 l-28 42 -29 0 -29 0 -15 -22 -16
  -22 0 -47 0 -46 23 -34 c12 -18 38 -44 56 -56 l34 -23 41 0 c23 0 57 8 76 18
  44 22 93 86 119 157 24 63 27 119 9 177 l-12 40 -43 43 -43 44 -58 22 -57 22
  -95 1 -95 1 -52 -18 -52 -18 -39 -39 -40 -38 -22 -58 -23 -59 0 -95 0 -95 21
  -65 c12 -35 19 -66 17 -68 -9 -10 -76 100 -94 156 l-21 62 0 65 0 64 23 64
  c49 134 146 229 282 274 l40 13 85 -3 85 -3 68 -31z m1486 -51 c14 -10 36 -34
  49 -52 l22 -33 0 -37 0 -36 -30 -47 c-17 -26 -59 -88 -95 -136 -36 -49 -65
  -94 -65 -100 l0 -10 103 -3 102 -3 3 -37 3 -38 -186 0 -185 0 85 117 c47 65
  85 122 85 128 0 5 -17 19 -37 30 -21 11 -48 36 -61 55 l-24 35 4 53 5 52 29
  31 c16 17 43 38 59 45 l30 14 39 -4 c22 -3 51 -13 65 -24z m481 -147 l0 -165
  30 0 30 0 0 -40 0 -40 -30 0 -30 0 0 -70 0 -70 -45 0 -45 0 0 70 0 70 -105 0
  -105 0 0 46 0 47 76 146 c42 80 81 152 87 159 l9 12 64 0 64 0 0 -165z m280
  55 l0 -110 110 0 110 0 0 110 0 110 50 0 50 0 0 -275 0 -275 -50 0 -50 0 0
  115 0 115 -110 0 -110 0 0 -115 0 -115 -50 0 -50 0 0 275 0 275 50 0 50 0 0
  -110z m693 -70 l72 -150 13 0 c7 0 22 20 34 45 l22 46 -52 104 -52 105 51 0
  50 0 69 -145 69 -145 13 0 13 0 67 143 67 142 51 3 c27 2 50 2 50 0 0 -2 -54
  -120 -119 -263 -66 -143 -123 -261 -128 -262 -5 -2 -29 39 -52 92 -24 52 -49
  95 -55 95 -6 0 -30 -42 -52 -92 -23 -51 -46 -94 -51 -95 -5 -2 -63 116 -130
  262 l-121 265 50 0 50 0 71 -150z m1007 105 l0 -44 -127 -3 -128 -3 -3 -57 -3
  -58 106 0 105 0 0 -45 0 -44 -102 -3 -103 -3 -3 -67 -3 -68 131 0 130 0 0 -45
  0 -45 -175 0 -175 0 0 265 0 265 175 0 175 0 0 -45z m488 -214 c67 -143 122
  -262 122 -265 0 -3 -22 -6 -49 -6 l-48 0 -21 50 -21 50 -120 0 -121 0 -25 -50
  -25 -50 -50 0 -50 0 121 242 c124 247 146 288 158 288 4 0 62 -117 129 -259z
  m512 214 l0 -45 -75 0 -75 0 0 -220 0 -220 -50 0 -50 0 0 220 0 220 -75 0 -75
  0 0 45 0 45 200 0 200 0 0 -45z m200 -60 l0 -105 105 0 105 0 0 105 0 105 50
  0 50 0 0 -265 0 -265 -50 0 -50 0 0 115 0 115 -105 0 -105 0 0 -115 0 -115
  -50 0 -50 0 0 265 0 265 50 0 50 0 0 -105z m760 60 l0 -45 -125 0 -125 0 0
  -60 0 -60 105 0 105 0 0 -45 0 -45 -105 0 -105 0 0 -70 0 -70 125 0 125 0 0
  -45 0 -45 -175 0 -175 0 0 265 0 265 175 0 175 0 0 -45z m370 25 c49 -25 81
  -71 87 -124 l5 -43 -16 -30 c-8 -17 -29 -42 -46 -56 -16 -14 -30 -32 -30 -40
  0 -8 20 -57 45 -109 25 -53 45 -98 45 -102 0 -3 -20 -6 -45 -6 l-46 0 -51 110
  -51 110 -33 0 -34 0 0 -110 0 -110 -50 0 -50 0 0 265 0 265 115 0 116 0 39
  -20z m-7128 -281 c29 -6 57 -15 62 -19 l8 -8 -58 -13 c-33 -7 -104 -13 -159
  -13 l-100 1 -40 15 -40 15 50 16 50 16 87 0 c48 1 111 -4 140 -10z m1663 -8
  l30 -13 -40 -16 -40 -15 -100 -1 c-94 0 -223 19 -211 31 3 3 29 12 58 19 l53
  13 110 -3 110 -3 30 -12z m-1515 -315 c0 -3 -32 -30 -71 -60 -79 -62 -172
  -111 -239 -125 l-45 -10 54 50 c54 51 136 98 226 130 51 18 75 23 75 15z
  m1238 -81 c61 -31 168 -122 158 -132 -8 -8 -116 34 -169 67 -31 18 -82 57
  -114 86 l-58 53 58 -19 c31 -10 88 -35 125 -55z m-1049 -250 c-30 -74 -94
  -171 -138 -209 -11 -11 -23 -17 -26 -15 -9 10 17 85 51 146 37 67 136 182 142
  165 2 -6 -11 -45 -29 -87z m745 -25 c42 -65 78 -140 90 -192 l6 -27 -14 5
  c-22 9 -90 101 -124 169 -16 33 -37 84 -46 114 l-16 55 31 -30 c17 -16 50 -58
  73 -94z m3096 80 c300 -17 585 -39 840 -65 448 -45 712 -65 1018 -77 l302 -12
  238 12 c130 7 270 17 310 23 40 5 79 8 85 6 17 -6 -187 -35 -333 -48 -69 -6
  -242 -12 -385 -12 l-260 -1 -140 13 c-1158 102 -1645 131 -2215 131 -424 0
  -807 -19 -1159 -56 -79 -8 -145 -13 -147 -11 -6 5 236 44 386 62 440 51 954
  63 1460 35z m-3474 -102 c7 -35 13 -99 14 -144 l0 -80 -16 -55 -17 -54 -15 40
  -15 40 -1 100 -1 100 14 63 c8 34 16 60 19 58 2 -3 10 -33 18 -68z m6361 5
  c-4 -3 -10 -3 -14 0 -3 4 0 7 7 7 7 0 10 -3 7 -7z m-4760 -10 c-4 -3 -10 -3
  -14 0 -3 4 0 7 7 7 7 0 10 -3 7 -7z m4716 0 c-7 -2 -19 -2 -25 0 -7 3 -2 5 12
  5 14 0 19 -2 13 -5z" />
      <path d="M2757 1672 l-17 -19 0 -34 c0 -19 5 -40 12 -47 7 -7 28 -12 48 -12
  l37 0 16 18 c10 10 17 32 17 49 l0 30 -18 16 c-10 10 -32 17 -49 17 l-30 0
  -16 -18z" />
      <path d="M3205 1550 c-25 -49 -45 -96 -45 -105 l0 -15 60 0 60 0 0 105 0 105
  -15 0 -15 0 -45 -90z" />
      <path d="M5665 1470 c-14 -27 -25 -56 -25 -65 l0 -15 60 0 60 0 0 20 c0 29
  -42 110 -57 110 -7 0 -24 -22 -38 -50z" />
      <path d="M7510 1575 l0 -65 61 0 c33 0 69 5 80 10 l19 11 0 39 0 39 -22 15
  -22 16 -58 0 -58 0 0 -65z" />
    </g>
    <g transform="translate(0.000000,278.000000) scale(0.100000,-0.100000)" fill="#f5911e" stroke="none">
      <path d="M4160 1733 c0 -5 55 -129 122 -276 l123 -268 18 3 19 3 43 93 42 93
  44 -96 43 -96 19 3 19 3 119 260 c65 143 119 265 119 272 l0 13 -60 0 -60 0
  -9 -22 c-5 -13 -36 -79 -69 -148 l-60 -125 -70 148 -71 147 -60 0 -61 0 0 -10
  c0 -6 23 -55 50 -110 l50 -100 -21 -42 -22 -42 -73 152 -73 152 -60 0 c-34 0
  -61 -3 -61 -7z" />
      <path d="M4990 1465 l0 -275 25 0 c14 0 84 -1 155 -1 72 0 144 1 160 1 l30 0
  0 55 0 55 -130 0 -131 0 3 58 3 57 103 3 102 3 0 54 0 55 -106 0 -105 0 3 48
  3 47 128 3 127 3 0 54 0 55 -185 0 -185 0 0 -275z" />
      <path d="M5677 1717 c-8 -13 -72 -137 -141 -275 l-126 -252 65 0 65 0 25 50
  25 50 111 0 110 0 21 -50 21 -50 64 0 65 0 -6 16 c-4 9 -61 133 -128 275
  l-122 259 -17 0 c-9 0 -24 -10 -32 -23z m73 -304 l0 -13 -50 0 c-27 0 -50 2
  -50 5 0 3 12 29 26 57 l26 52 24 -44 c13 -25 23 -51 24 -57z" />
      <path d="M5940 1685 l0 -55 75 0 75 0 0 -220 0 -220 60 0 60 0 0 220 0 220 75
  0 75 0 0 55 0 55 -210 0 -210 0 0 -55z" />
      <path d="M6440 1466 l0 -274 56 -4 c31 -1 58 -1 60 1 2 2 4 55 4 118 l0 113
  95 0 95 0 0 -114 0 -115 23 -3 c12 -2 39 -1 60 1 l37 3 0 274 0 274 -60 0 -60
  0 0 -105 0 -105 -95 0 -95 0 0 105 0 105 -60 0 -60 0 0 -274z" />
      <path d="M6950 1465 l0 -275 45 0 c25 0 104 -1 175 -1 72 0 135 1 140 1 l10 0
  0 55 0 55 -125 0 -125 0 0 60 0 60 105 0 105 0 0 55 0 55 -105 0 -105 0 0 50
  0 50 125 0 125 0 0 55 0 55 -185 0 -185 0 0 -275z" />
      <path d="M7410 1465 l0 -275 55 0 55 0 0 110 0 110 24 0 23 0 51 -110 51 -110
  61 0 c33 0 60 2 60 5 0 3 -23 55 -51 115 l-51 109 35 30 c19 17 40 44 47 61
  l13 30 -5 49 -5 48 -22 32 c-13 17 -40 40 -61 51 l-39 20 -121 0 -120 0 0
  -275z m235 141 l25 -25 -6 -18 c-4 -10 -14 -24 -22 -30 l-16 -13 -53 0 -53 0
  0 55 0 55 50 0 51 0 24 -24z" />
    </g>
    <g transform="translate(0.000000,278.000000) scale(0.100000,-0.100000)" fill="#fda50e" stroke="none">
      <path d="M1214 2394 l-19 -49 2 -125 1 -125 14 -50 c8 -27 19 -49 24 -48 17 2
  35 88 41 193 l6 105 -12 56 c-7 31 -18 64 -25 74 l-13 18 -19 -49z" />
      <path d="M350 1930 c0 -22 106 -115 168 -148 55 -30 192 -82 214 -82 22 0 1
  25 -69 85 l-78 66 -80 39 c-44 21 -97 41 -117 45 l-38 6 0 -11z" />
      <path d="M2020 1887 c-36 -12 -91 -39 -122 -61 -64 -42 -158 -123 -158 -136 0
  -4 19 -4 41 1 71 16 183 64 242 103 55 37 107 88 107 107 0 15 -41 10 -110
  -14z" />
      <path d="M1115 1827 c-136 -45 -233 -140 -282 -274 l-23 -64 0 -75 0 -75 21
  -61 c11 -34 30 -76 41 -93 27 -39 90 -105 100 -105 5 0 2 12 -6 28 -7 15 -24
  59 -36 97 l-22 70 0 85 -1 85 23 59 22 58 40 38 39 39 52 18 52 18 85 -1 85
  -1 57 -22 58 -22 43 -44 44 -44 13 -45 13 -46 -6 -41 c-8 -58 -61 -162 -102
  -198 -37 -32 -89 -47 -129 -37 -32 8 -83 52 -101 87 -30 57 -9 139 35 139 l20
  0 25 -39 c13 -22 32 -44 42 -49 l17 -10 17 8 c9 5 22 23 29 39 l12 30 -12 35
  c-15 45 -80 113 -133 137 -23 10 -59 19 -79 19 l-37 0 -34 -30 -34 -29 -28
  -63 -29 -63 -4 -81 -4 -82 17 -52 17 -52 38 -38 38 -38 56 -21 57 -21 72 0 72
  0 53 25 53 24 55 55 55 55 37 78 37 78 0 115 0 115 -34 62 -34 62 -53 51 -54
  51 -67 32 -68 31 -95 3 -95 3 -40 -13z" />
      <path d="M635 1106 c-38 -12 -97 -37 -130 -53 -67 -34 -165 -117 -165 -139 0
  -8 4 -14 8 -14 31 0 137 37 187 65 66 37 195 140 195 155 0 14 -16 12 -95 -14z" />
      <path d="M1730 1110 c0 -11 103 -104 156 -141 60 -41 140 -77 192 -85 l42 -7
  0 10 c0 5 -24 33 -52 62 l-53 52 -90 44 c-94 46 -195 80 -195 65z" />
      <path d="M1221 794 c-6 -22 -16 -68 -22 -103 l-12 -64 6 -81 c5 -83 24 -153
  42 -158 6 -2 18 20 27 47 l17 50 1 92 0 92 -15 73 c-9 40 -20 77 -25 82 l-8 8
  -11 -38z" />
    </g>
    <g transform="translate(0.000000,278.000000) scale(0.100000,-0.100000)" fill="#232323" stroke="none">
      <path d="M2745 1766 c-16 -7 -43 -28 -60 -45 l-29 -31 -4 -63 -4 -62 24 -35
  c13 -19 40 -44 60 -55 l37 -21 -89 -124 c-50 -68 -90 -125 -90 -127 0 -2 90
  -3 201 -3 l200 0 -3 48 -3 47 -103 0 c-56 0 -102 2 -102 4 0 2 29 43 65 92 36
  48 78 110 95 136 l30 47 0 46 0 47 -22 33 c-13 18 -35 42 -50 53 l-27 20 -48
  4 -48 3 -30 -14z m97 -103 c22 -20 23 -51 1 -75 -18 -20 -63 -24 -81 -6 -17
  17 -15 58 5 80 20 22 51 23 75 1z" />
      <path d="M3223 1758 c-6 -7 -45 -79 -87 -159 l-76 -146 0 -57 0 -56 105 0 105
  0 0 -70 0 -70 56 0 55 0 -1 48 c-1 26 -1 57 -1 70 l1 22 30 0 30 0 0 49 0 50
  -32 3 -33 3 0 163 0 162 -71 0 -72 0 -9 -12z m47 -223 l0 -95 -50 0 c-27 0
  -50 2 -50 5 0 10 90 185 95 185 3 0 5 -43 5 -95z" />
      <path d="M3540 1485 l0 -285 60 0 60 0 0 115 0 115 100 0 100 0 0 -115 0 -115
  60 0 60 0 0 285 0 285 -60 0 -60 0 0 -110 0 -110 -100 0 -100 0 0 110 0 110
  -60 0 -60 0 0 -285z" />
      <path d="M3795 844 c-300 -13 -522 -33 -754 -70 -85 -13 -158 -24 -163 -24 -4
  0 -8 -7 -8 -15 l0 -15 28 0 c16 0 53 4 83 10 94 17 396 39 614 45 116 4 216 8
  223 11 26 8 633 4 932 -6 298 -10 481 -20 745 -40 211 -17 507 -44 740 -68
  l170 -17 390 0 390 0 97 13 c53 6 131 17 173 23 l75 11 0 14 c0 8 -3 14 -7 14
  -5 0 -69 -8 -143 -17 l-135 -17 -375 0 -375 0 -240 17 c-132 10 -256 19 -275
  22 -19 3 -107 12 -195 20 -88 8 -228 21 -311 29 -83 9 -200 18 -260 21 -60 4
  -111 8 -114 10 -13 8 -629 36 -825 38 -115 1 -331 -3 -480 -9z" />
      <path d="M2827 733 c-13 -12 -7 -23 13 -23 l20 0 0 15 c0 15 -21 21 -33 8z" />
      <path d="M7550 725 c0 -8 7 -15 15 -15 8 0 15 7 15 15 0 8 -7 15 -15 15 -8 0
  -15 -7 -15 -15z" />
      <path d="M2780 714 c0 -9 5 -14 12 -12 18 6 21 28 4 28 -9 0 -16 -7 -16 -16z" />
    </g>
    <g transform="translate(0.000000,278.000000) scale(0.100000,-0.100000)" fill="#fd810e" stroke="none">
      <path d="M735 2268 c3 -24 26 -84 50 -134 l44 -90 59 -65 c33 -35 63 -61 66
  -58 10 9 -33 137 -71 213 -33 65 -124 176 -145 176 l-10 0 7 -42z" />
      <path d="M1702 2246 c-26 -25 -64 -73 -85 -107 -38 -66 -94 -216 -83 -227 11
  -10 95 79 146 155 44 65 68 121 84 196 l6 27 -10 0 c-6 0 -32 -20 -58 -44z" />
      <path d="M262 1433 c-29 -9 -51 -20 -49 -26 5 -17 77 -37 152 -44 l70 -5 75
  11 c87 13 140 29 140 41 0 5 -31 16 -69 24 l-70 16 -98 -1 -98 -1 -53 -15z" />
      <path d="M1888 1433 c-38 -9 -68 -19 -68 -23 0 -13 54 -28 141 -41 l82 -12 66
  6 c74 7 164 34 156 48 -3 5 -29 15 -57 24 l-52 15 -100 -1 -101 -1 -67 -15z" />
      <path d="M858 831 l-65 -70 -36 -73 -37 -73 -7 -50 -6 -50 34 26 c76 57 171
  217 194 327 l7 32 -10 0 c-6 0 -39 -31 -74 -69z" />
      <path d="M1531 828 c11 -40 38 -107 60 -149 39 -74 117 -169 140 -169 l12 0
  -7 41 c-9 54 -41 130 -83 197 -35 56 -120 152 -134 152 -4 0 1 -33 12 -72z" />
    </g>
  </svg>